<svg clip-rule="evenodd" fill-rule="evenodd" stroke-linejoin="round" stroke-miterlimit="2" version="1.1" viewBox="0 0 48 48" xml:space="preserve" xmlns="http://www.w3.org/2000/svg">
    
    <path d="m48 12c0-6.623-5.377-12-12-12h-24c-6.623 0-12 5.377-12 12v24c0 6.623 5.377 12 12 12h24c6.623 0 12-5.377 12-12z" display="none" fill="none" stroke="#f00"/>
    
<g transform="matrix(.06624518 0 0 .06624518 .02097914 .02098241)"><g clip-rule="evenodd" fill-rule="evenodd"><path class="st0" d="m723.9476 180.9869c0-99.92771-81.05922-180.836-180.9869-180.9869h-180.9869v723.9475h180.9869c99.92771-0.15093 180.836-81.05912 180.9869-180.9868z" fill="#fefefe" stroke-width="1.50949"/><path class="st0" transform="matrix(1.003 0 0 .99931 -.99515 .99931)" d="m361.8834-1h-180.4455c-99.62883 0.151045-180.2952 81.11515-180.4457 181.1119v362.2238c0.1509487 99.9967 80.81682 181.1118 180.4457 181.1118h180.4455z" fill="#427fe3" stroke-width="1.50775"/></g><g transform="matrix(1.003 0 0 .99931 -.99515 .99931)"><path d="m442.37 456.08c-2.2696-1.0306-4.3648-2.2593-4.6559-2.7303-0.29112-0.47103 3.8159-0.85538 9.1266-0.85412 9.0842 2e-3 9.9199-0.17597 14.115-3.0084 5.0766-3.4277 9.3042-9.1338 11.102-14.985 0.67675-2.2024 1.5024-9.1793 1.8347-15.504 0.48794-9.287 0.89286-11.5 2.1042-11.5 2.3548 0 2.6633 24.987 0.39284 31.823-4.6802 14.091-21.572 22.412-34.019 16.76zm72.275-0.84217c-1.1877-1.9217 1.2628-3.1453 6.8757-3.4333l5.976-0.30665 0.5-90.667c0.275-49.867 0.81809-90.985 1.2069-91.374s1.4036-0.43927 2.2552-0.11249c1.3849 0.53143 1.5214 10.386 1.2931 93.374l-0.25518 92.779-8.6677 0.28773c-4.7672 0.15825-8.9-0.0882-9.184-0.54774zm69.821-0.28939c-1.2178-1.9704 0.85486-2.8368 7.5305-3.1478l6.5-0.3028 0.25574-83.25 0.25575-83.25h16.989v-7.5c0-7.3619 0.0467-7.5 2.5362-7.5h2.5362l-0.57242 19.5-17.488 0.5777-0.51154 165.42-8.6677 0.28773c-5.6332 0.187-8.911-0.10606-9.3629-0.83713zm86.531-0.86598c0-1.7649 0.77319-2.0271 6.75-2.2889l6.75-0.29569 1-82.307 5-3.4369c0.54237-0.37281 8.8957-6.5266 11-15.114 1.7078-6.9687-2.3012-80.642 3.7107-80.642 1.9925 0 2.0092 0.43931 1.61 42.25-0.46624 48.826 0.10137 45.852-10.678 55.934l-6.6429 6.2131-1 81.102-8.75 0.28893c-8.1701 0.26979-8.75 0.15683-8.75-1.7043zm-232-97.585v-71.5h6.5c6.2259 0 6.5 0.10301 6.5 2.4425 0 2.1586-0.49394 2.4782-4.25 2.75l-4.25 0.3075-0.25689 68.75c-0.25379 67.918-0.28101 68.75-2.25 68.75-1.9722 0-1.9931-0.74909-1.9931-71.5zm229-48.5c0-37.333 0.0351-38 2-38s2 0.66667 2 38-0.0351 38-2 38-2-0.66667-2-38zm-207 9c0-1.7949 0.66667-2 6.5-2h6.5v-11.364c0-10.676-0.89888-18.643-2.6008-23.051-1.6137-4.1791 1.8712-0.20159 4.1938 4.7866 2.1631 4.6456 2.3884 6.4667 2.3972 19.377l0.01 14.25h-8.5c-7.8333 0-8.5-0.15686-8.5-2zm106.34-28.567c-0.92501-2.4106 1.0097-3.6013 5.2824-3.251 3.1463 0.25793 3.9423 0.74454 4.2013 2.5682 0.29166 2.0536-0.082 2.25-4.2814 2.25-3.2549 0-4.7769-0.45849-5.2023-1.5672z" fill="#427fe3"/><path d="m69.535 475.41c-0.9322-1.4227-1.5465-2.6809-1.365-2.796 0.18145-0.11509 5.5049-2.7793 11.83-5.9206 19.348-9.6087 30.142-20.268 37.161-36.697 2.6733-6.2572 3.2758-9.1065 3.6359-17.195 0.72058-16.185-3.7927-27.218-25.2-61.603-13.524-21.723-17.091-28.664-19.211-37.388-1.4405-5.9266-1.5415-8.0398-0.59943-12.531 1.7026-8.1173 4.9351-13.701 11.652-20.126 5.2757-5.0468 17.243-13.157 19.415-13.157 0.41053 0 1.2539-0.50746 1.8741-1.1277 0.83693-0.83693 0.32156-2.7625-1.9988-7.4679-3.1115-6.3097-3.1901-8.1791-0.29747-7.0691 1.5771 0.60519 9.5686 15.851 9.5686 18.255 0 0.75297-1.9125 2.3375-4.25 3.5212-7.3047 3.699-18.686 12.02-21.775 15.92-5.1827 6.5436-7.954 13.763-7.9649 20.75-0.01663 10.693 2.9371 17.383 19.404 43.951 12.305 19.853 16.902 28.073 20.838 37.268 8.0375 18.771 7.8286 29.411-0.9434 48.043-4.2786 9.088-10.399 16.222-20.33 23.697-6.6338 4.9928-24.562 14.26-27.588 14.26-1.2204 0-2.898-1.1256-3.8554-2.5868zm156.13-1.0799c-0.36667-0.36666-0.66667-1.6977-0.66667-2.9579 0-2.1661 0.3295-3.4322 7.6562-3.7083 7.4439-0.28052 7.8537 0.73419 8.0959-1.6671 0.13869-1.375 0.92498-7.8986 1.7217-14.5l6.4566-53.5 5.8372-45.566 7.3102 3.4379-5.0172 33.128-2.0812 17.5-2.033 16.5c-1.3151 10.673-3.3677 29.365-4.8662 41.78-0.54966 4.5541-1.2691 8.7166-1.5987 9.25-0.66661 1.0786-19.761 1.3567-20.815 0.30312zm101.03 0.0318c-0.38416-0.38415-0.69848-1.7485-0.69848-3.0318 0-2.2354 0.66588-3.2172 7.7945-3.2172 4.0925 0 6.7586-0.64686 7.0049-1.0594s0.35794-4.0545-0.3624-9.5568l-4.9094-37.5-5.095-39-2.971-22.5-7.4532-55.873c-3.1755-23.805-6.3988-35.224-7.0386-43.175s1.0124-12.457 2.573-12.483c2.5389-0.0428 3.9333 8.0304 6.4314 25.531 1.8035 12.635 4.0002 29.748 5.0964 38l3.4539 26 3.417 26 4.5064 35 3.5432 26.5c0.73013 5.4608 5.5904 41.973 6.2934 48.5 0.20161 1.8717-0.4613 2.0181-10.336 2.2818-5.8033 0.155-10.866-0.0325-11.25-0.41667zm-161.13-0.68971 0.79849-5.1295s10.239 0.12646 15.136-0.0459l0.25452-106.75-1.7766-106.68 5.0075-0.0677c2.2587-0.0305 3.1074 0.54237 3.52 2.25 0.29894 1.2375 0.42002 50.4 0.26905 109.25l-0.27448 107c-7.6434 0.34988-15.287 0.24331-22.934 0.17542zm118.18-17.622-1.8127-9.2582 18.094-68.295 7.5866-32.514 3.5161 14.593zm-5.1381-103.6-2.213-9.3252-8.9927-35c-8.0679-31.401-14.596-53.646-14.596-53.646s1.144-3.3511 2.4958-3.8699c2.1531-0.82623 3.1418 4.0606 4.5128 7.402 1.5825 3.8568 6.4315 22.974 12.216 46.988l11.114 46.137-1.4018 5.951-1.3524 3.3145z" fill="#000002"/><path d="m436.46 449.66c-7.1232-2.3378-11.998-7.3162-15.154-15.476-2.1898-5.6618-2.1986-5.9669-2.25-77.756-0.0577-80.64-0.32151-77.432 7.0559-85.813 12.169-13.825 34.515-10.205 42.042 6.8096 1.9088 4.315 2.3067 7.2845 2.6569 19.825l0.4119 14.75h-17.218v-12.566c0-6.9112-0.46583-13.436-1.0352-14.5-0.87947-1.6433-2.142-1.9343-8.393-1.9343-5.7869 0-7.4874 0.33772-7.9648 1.5818-0.33385 0.86998-0.60699 33.945-0.60699 73.5v71.918h18v-29h17v13.962c0 20.335-2.7735 26.981-13.685 32.789-5.6577 3.0118-14.916 3.8588-20.86 1.9082zm73.744-1.8597c-0.91581-0.91581-1.2-22.822-1.2-92.5v-91.3h16v91.3c0 69.678-0.28419 91.584-1.2 92.5-1.558 1.558-12.042 1.558-13.6 0zm70 0c-0.91376-0.91376-1.2-20.702-1.2-82.96v-81.76l-16.5-0.58088v-18h50v18l-16.5 0.58088v81.76c0 62.257-0.28624 82.046-1.2 82.96-1.5664 1.5664-13.034 1.5664-14.6 0zm86.039 0.039c-0.94096-0.94096-1.2569-10.753-1.3134-40.789l-0.0744-39.55-5.1723-4.0542c-5.9421-4.6576-9.2513-9.1439-10.692-14.496-0.6222-2.3107-0.90903-19.224-0.74787-44.099l0.26143-40.351h16l1 82h18l1-82h15l0.29576 39c0.36147 47.666 0.19011 48.642-10.296 58.632-1.65 1.5721-3.225 2.8673-3.5 2.8783s-1.175 0.44628-2 0.96738c-1.2796 0.80821-1.5735 6.941-2 41.735l-0.5 40.787-7.011 0.28899c-4.5937 0.18934-7.4382-0.13821-8.25-0.95z" fill="#000002"/><path d="m66.152 471.68c-1.2924-1.5625-9.3895-17.823-8.9751-18.023 19.893-9.6223 24.192-12.185 29.734-17.728 10.159-10.159 12.672-22.1 7.7267-36.717-1.9792-5.85-13.295-26.115-19.662-35.211-3.6571-5.2249-15.914-28.186-18.511-34.677-11.479-28.693-1.952-53.352 28.034-72.564 3.85-2.4666 9.1442-5.4241 11.765-6.5723l4.7649-2.0876 4.4249 8.8106c3.3118 6.5942 4.2979 9.2948 3.2851 9.9504-1.4393 0.93157-1.8862 1.1398-1.8862 1.1398s-14.139 8.1097-19.415 13.157c-6.717 6.4256-9.9495 12.009-11.652 20.126-0.94211 4.4916-0.84103 6.6047 0.59943 12.531 2.1204 8.724 5.6872 15.666 19.211 37.388 21.407 34.384 25.92 45.417 25.2 61.603-0.3601 8.0885-0.96258 10.938-3.6359 17.195-7.67 17.953-20.252 29.497-43.532 39.942-4.8693 2.1847-6.7452 2.6206-7.476 1.7371zm94.547-3.3134c-0.3847-0.38469-0.69945-49.449-0.69945-109.03v-108.33c6.9633 0.0176 13.927 0.0151 20.89 0.0147 0 0 1.0666 23.857 0.86459 109.55l-0.25451 107.94-10.051 0.28278c-5.5278 0.15553-10.365-0.032-10.75-0.41667zm60.636-0.93359c7.2316-70.191 16.998-140.5 25.749-210.62 1.3013-10.327 3.8155-9.2358 6.9192-1.7592 9.3542 22.533 23.892 102.31 27.019 103.8 2.0607 0.97999 1.4972 1.6369 0.70705 1.7175-0.79012 0.0806-1.8069-0.41511-0.65265-1.7403 9.3932-34.84 20.604-82.149 26.489-105.12 1.3798-5.3846 2.3859-8.3022 3.3965-8.6057 1.0106-0.30352 1.865 1.9684 2.4597 6.8468 12.894 98.319-7.1514-54.837 27.028 205.55 0.72234 5.5029 1.0199 10.355 0.6121 10.79-0.16867 0.17965-15.363 1.7951-17.75-0.40837-1.9538-1.8038-2.5334-5.8813-2.5334-5.8813-2.2758-20.504 2.8393 25.806-11.312-93.67l-1.9469-15.144s-18.059 65.146-26.547 97.862c-8.7464-32.875-17.324-65.795-26.221-98.63-4.35 32.995-8.2902 66.041-12.278 99.082-0.79668 6.6014-1.583 13.125-1.7217 14.5-0.24664 2.4452-0.45533 2.5063-9.5191 2.7878-7.8437 0.24356-9.3637 0.0354-9.8974-1.3552z" fill="#fefefe"/></g></g></svg>
