<svg width="1015" height="411" version="1.1" viewBox="0 0 1015 411" xmlns="http://www.w3.org/2000/svg"><path d="m2.193 0.007812v148l-0.00391 148h420l-0.2598-151.5c-3e-3 2.038 6e-3 2.094 2e-3 4.188l-0.2539 146.8c-285.1 0.3459-418.5 0.4943-418.5-0.3906 0-0.4925 0.712-1.168 1.582-1.502 137.6-4.547 276.7 2.251 414.4-0.6074l0.252-145.2c0.2012-115.3 0.5126-145.2 1.508-145.6h2e-3c0.1938-0.06388 0.3478 1.694 0.4766 4.898 0.1285 2.486 0.226 7.553 0.3086 13.15l-0.0332-19.79zm367.6 42v0.0059c0.7624 0 1.387 0.179 1.387 0.3965-3.884 8.391-21.21 42.7-37.59 74.94-0.0355 0.0699-0.0465 0.0923-0.082 0.1621-16.34 32.14-31.74 62.25-31.85 62.37l0.0293 0.0527c2.363-0.19 67.7-137.2 68.91-131.9 12.98 62.85 24.45 126 36.69 189l-31.6-0.5527c-13.5-71.69-16.87-100.5-18.6-100.5-1.218 5e-3 -55.09 109-55.91 109-2.935 0-39.82-86.4-52.36-103.1 0.4522 0.3335 3.902 6.861 8.234 15.68 13.06 27.31 26.88 54.26 39.71 81.69 2.028 4.413 3.214 7.224 3.07 7.367-0.2869 0.2869-2.079-2.786-3.982-6.828-1.235-2.621-30.38-62.88-39.58-81.45-4.413-8.914-7.58-16.04-7.566-16.62-2.154-2.824-3.655-3.781-4.016-1.527-1.997 12.48-18.38 94.74-19.09 95.91-0.287 0.4634-7.468 0.8418-15.96 0.8418-17.28 0-16.26 0.5845-14.03-8.039 2.053-7.94 17.8-84.28 30.7-142 1.969-8.799 4.858-22.52 6.627-31.35l-37.8 173.8c-0.5954 2.738-1.226 5.788-1.529 6.75-0.3027 0.9625-0.9695 1.75-1.482 1.75-0.5129 0-0.9336-0.5253-0.9336-1.168 6.64-38.08 41.82-194.2 42.78-194.6v-2e-3c0.718-0.2755 1.543-0.264 1.832 0.02539 0.2894 0.2894 0.074 1.359-0.4785 2.375l-1.508 6.94c0.3962-1.865 0.8389-3.99 0.9961-4.494 1.224-3.922 40.42 84.97 66.71 132.5-0.1659-0.2677-0.332-0.7623-0.332-1.695 0-2.55 66.66-135.9 68.61-135.9zm175.3 7.478c-29.14-0.5494-59.25 10.03-80.27 30.41-55.54 53.86-25.34 144.2 52.82 158 3.3 0.5828 7.125 1.26 8.5 1.504l-8e-3 4e-3c9.621 1.709 23.72 0.5932 37.57-2.375-2.843 0.5663-5.793 1.073-8.938 1.459-3.248 0.4133-6.645 0.7178-10.22 0.8574-17.03 0.594-43.32-1.99-67.02-18.91-3.464-2.472-6.608-4.996-6.988-5.611s2.13 0.7973 5.578 3.139c29.1 19.76 61.82 20.31 78.3 18.1 13.81-2.104 27.15-6.267 39.72-12.36v-18.28c0-10.06 0.2736-19 0.6074-19.87 0.3339-0.87 1.074-3.19 1.428-3.188 0.3536 5e-3 0.58 10.5 0.7207 21.36 9e-3 0.6835-0.0119 1.127-6e-3 1.797l0.0234-1.793c0.1482-11.96 0.0426-21.75-0.2363-21.75-0.2789 0-4.45 2.925-9.27 6.5-48.88 36.26-112.3 11.75-112.3-43.42 0-54.5 66.43-80.49 112.9-44.18 1.97 1.539 4.818 3.594 6.33 4.566l2.75 1.768v-42.8l-2.818-1.666c-14.61-8.631-31.74-12.97-49.23-13.3zm343.7 3.527-43.66 0.4394 66 105.1 2e-3 78.5h38v-1.004h-2e-3c-5.985 0-12.2 0.2075-18.36 0.1894-3.082-9e-3 -6.153-0.0743-9.176-0.25-3.022-0.1755-5.996-0.4622-8.889-0.9121 5.41-1.51 11.13-1.564 16.88-1.404 2.874 0.0798 5.757 0.2128 8.609 0.2441 2.852 0.0313 5.675-0.0394 8.434-0.3672l0.4356-77.34 65.75-101.6c9e-4 -3.53e-4 0 3.54e-4 0 0 0.8763-0.3359 1.679-0.4885 1.791-0.3398 1e-4 1.55e-4 0-1.58e-4 0 0-0.7449 1.291-1.564 2.537-2.318 3.822l2.836-4.502-43.5-0.5078-42.8 63.64zm-268.7 0.0039 0.668 183.3 37.33 0.6699v-184zm58 0v34h58l0.6875 149.3v4e-3l37.81 0.1445 0.5098-149-0.5117 0.0098-0.5117 148.5c-11.69 0-24.13 0.8184-35.49-1 10.35-3.579 22.83 0.5648 33.5-1 0-36.94-1.047-75.12-0.1172-112.4 0.3097-12.44 0.8384-24.78 1.699-36.96 6e-5 -2.2e-5 2e-3 2.2e-5 2e-3 0 0.8716-0.3338 14.14-0.6074 29.5-0.6074h27.92v-14.44c0-8.784 0.4018-14.69 1.025-15.08v-0.0039h2e-3v0.0039c0.3431-0.2055 0.577 0.9795 0.7012 3.584 0.1243 2.605 0.1391 6.63 0.0469 12.1l-0.2755 16.32-29.79 0.5137h30.3v-34zm-595.2 1.102h2e-3c2.811-0.08896 5.33-0.01695 7.465 0.125 7.835 1.164 15.63 2.493 22.69 6.385 3.575 1.878 8.292 4.983 10.49 6.898 2.194 1.915 3.502 3.48 2.906 3.48s-1.855-0.85-2.797-1.891c-0.8523-0.9418-2.222-1.945-3.801-2.945-1.092-0.6739-2.433-1.338-3.82-1.996-0.5033-0.2464-0.9645-0.4946-1.504-0.7363-1.95-0.8463-4.096-1.664-6.447-2.406-0.034-0.01099-0.0675-0.02029-0.1016-0.03125-2.485-0.7808-5.164-1.488-7.99-2.076-3e-3 -6.7e-4 -7e-3 -0.0013-0.01-2e-3 12.42 3.049 24.16 9.694 32.98 20.57 6.534 8.053 6.477 8.385-2.154 12.77-3.988 2.024-9.447 4.931-12.13 6.461l-4.885 2.783-1.559-2.492c-14.34-22.9-53.17-18.91-53.17 5.455 0 9.812 7.602 15.5 33 24.7 33.56 12.15 46.42 23.71 50.6 45.5 0.9748 7.623 1.019 10.16 0.0254 18.28-3.877 21.19-18.78 37.28-41.01 44.26-26.99 8.478-59.41-1.574-73.46-22.77-3.085-4.658-7.517-16.01-9.201-22.48 0.2857 1.587 0.3031 2.486 0.8574 4.561 1.029 3.85 2.619 8.688 3.535 10.75 0.9158 2.062 1.443 3.75 1.17 3.75s-1.663-2.3-3.088-5.111c-1.425-2.812-3.404-8.316-4.398-12.23-0.994-3.914-1.606-7.638-1.361-8.275s8.048-2.652 17.34-4.477c9.294-1.825 17.22-3.001 17.6-2.613l-2e-3 2e-3c0.3878 0.3878 0.4453 0.9648 0.1289 1.281-0.316 0.3164-7.699 2.019-16.41 3.785-7.868 1.595-12.35 2.718-14.5 3.615 2.742-0.7784 27.84-5.971 28.98-5.971 0.4018 0 1.46 3.535 2.354 7.856 4.148 20.06 21.34 29.31 41.94 22.58 4.936-1.612 8.871-4.621 11.94-8.277-8.884 10.08-22.44 11.09-32.69 8.465-1.707-0.4373-3.325-0.9706-4.81-1.582-1.49-0.6123-2.85-1.3-4.043-2.037-1.995-1.233-3.468-2.399-3.275-2.592 0.612-0.6115 26.52 13.57 42.6-3.869 7.021-8.194 5.924-22.32 5.762-27.37s-5.297-7.854-5.297-7.854c-7.328-5.634-8.084-5.999-30.79-14.89-25.44-9.963-35.37-17.31-42.2-31.23l-2.471-5.033c0.02091 0.1043 0.01945 0.2042 0.04102 0.3086 0 0 0.2487 1.512 0.6094 2.172 0.6767 1.238 3.525 6.914 3.525 6.914 0.1132 0.2145-0.1989 0.4395-0.4414 0.4395s-0.7619-0.5193-1.154-1.154c-1.093-1.762-3.176-5.644-3.176-5.644-0.4527-1.004-1.167-3.05-1.83-5.539-7.431-27.91 17.3-46.23 26.67-50.92 11.27-5.644 22.34-7.362 30.78-7.629zm574.2 0.3887c4.3e-4 -2.69e-4 2e-3 0.02954 2e-3 0.0293 0.663-0.3705 1 30 1 90.41v91.06h-2e-3c-5.84-4e-3 -12.09 0.2397-18.25 0.2383-3.083-7.8e-4 -6.144-0.0621-9.123-0.248-2.978-0.1858-5.873-0.4957-8.623-0.9902 5.497-1.29 11.21-1.305 16.94-1.115 2.866 0.0949 5.737 0.2408 8.588 0.3047 2.851 0.0639 5.682 0.045 8.469-0.1894v-89.44c0-58.55 0.3454-89.66 1-90.06zm-486.9 2.5c6.746 0 10.73 0.05725 13.02 0.2734 3.5e-4 3.2e-5 2e-3 -3.3e-5 2e-3 0 1.146 0.1081 1.872 0.257 2.31 0.457 0.44 0.2003 0.5938 0.4516 0.5938 0.7695 0 0.318-0.1539 0.5693-0.5957 0.7695-1.323 0.6006-5.239 0.7305-15.41 0.7305h-16v88.44c0 57.25-0.3479 88.66-0.9883 89.05-4.3e-4 2.6e-4 -2e-3 -0.0295-2e-3 -0.0293-4e-4 2.7e-4 4e-4 0.0291 0 0.0293-0.6489 0.401-1.079-30.1-1.25-88.62-0.2129-72.89-0.0188-89.47 1.061-90.55 2.8e-4 -2.81e-4 2e-3 2.81e-4 2e-3 0 0.9867-0.9838 5.384-1.322 17.25-1.322zm-87.44 0.06641c-0.1013 0.0011-0.2072 0.02581-0.3086 0.02734 0.1372-0.0042 0.2726-0.01937 0.4102-0.02148-0.03474 8.9e-5 -0.0667-0.0063-0.1016-0.0059zm71.88 3.44h30l0.5117 176.5-30.55-1.25zm-100.5 3.309c-2.034 1.013-4.066 2.04-6.02 3.344-0.7449 0.4974-1.372 1.073-2.08 1.596 2.516-1.863 5.244-3.495 8.1-4.94zm541.5 1.518c0.6449-0.214 1 6.947 1 20.17 0 11.28-0.2463 20.5-0.5488 20.5h-2e-3c-0.3022 0-0.9758-0.427-1.498-0.9473-4.8e-4 -4.8e-4 -1e-3 4.9e-4 -2e-3 0-0.5696-0.568-0.751-8.643-0.4512-20.17 0.2982-11.46 0.9035-19.34 1.5-19.55 3.2e-4 -1.12e-4 2e-3 -0.0058 2e-3 -0.0059zm-557.7 11.04c-1.691 1.99-3.168 4.142-4.482 6.404 1.339-2.212 2.738-4.398 4.482-6.404zm-4.482 6.404c-1.16 1.915-2.064 3.932-2.908 5.986 0.8045-2.095 1.8-4.078 2.908-5.986zm-2.908 5.986c-0.01853 0.04826-0.04023 0.09422-0.05859 0.1426 0.01937-0.04763 0.03906-0.09501 0.05859-0.1426zm-0.05859 0.1426c-2.967 7.299-4.155 15.32-2.814 23.95l0.05273-8.844c0.0319-5.457 1.013-10.5 2.762-15.11zm502.6-7.674c1.437-0.08888 6.002-0.1389 10.01 0.07813 7.8e-4 4.2e-5 1e-3 -4.3e-5 2e-3 0 9.231 0.9855 25.7 3.852 38.86 12.14 4.8e-4 3e-4 1e-3 -3.01e-4 2e-3 0 1.923 1.21 3.753 2.524 5.467 3.947 4e-4 3.35e-4 2e-3 -3.34e-4 2e-3 0 1.714 1.424 3.308 2.958 4.76 4.609 0 0.2413-0.1333 0.3308-0.373 0.3008-0.2414-0.0309-0.5905-0.1827-1.022-0.4219-0.8606-0.4774-2.048-1.306-3.354-2.225-4.4e-4 -3.07e-4 -2e-3 3.07e-4 -2e-3 0-59.95-42.19-125.1 6.418-111.4 61.35 0.7588 3.025 2.029 6.78 2.82 8.344 0.7918 1.564 1.269 3.014 1.061 3.223-3.2e-4 3.2e-4 -4e-3 -8e-3 -4e-3 -8e-3 -4.9e-4 5.1e-4 2e-3 7e-3 2e-3 8e-3 -0.2085 0.2084-1.548-1.972-2.977-4.844-1.428-2.872-3.092-7.607-3.695-10.52-6.707-32.39 13.33-55.33 28.73-65.3 4.609-2.982 16.58-9.78 31.06-10.68zm196.2 3.408c5.3e-4 2.2e-5 1e-3 -2.2e-5 2e-3 0 2.539 0.1056 4.648 0.2291 6.123 0.3731 4.7e-4 4.5e-5 1e-3 -4.6e-5 2e-3 0 1.473 0.1439 2.312 0.3077 2.312 0.4922 0 1.045-32.5 1.566-48.57 1.217-5.472-0.1188-9.197-0.3384-9.404-0.6719-4e-5 -6.8e-5 -2e-3 6.9e-5 -2e-3 0-0.1678-0.2714-0.0615-0.5792 0.2441-0.8594 0.3049-0.2796 0.8082-0.5317 1.438-0.6856 1.975-0.4827 33.1-0.4785 47.85 0.1347zm249.5 26.79c-0.3943 0.6016-0.7854 1.205-1.18 1.807-4.267 6.511-8.527 13.02-12.74 19.57-5.309 8.247-10.55 16.54-15.61 24.93v0.5742zm-913 4.123c0.2645-5e-3 1.544 0.617 4.102 1.861 12.36 6.012 34.43 11.73 48.73 20.99 2.836 1.836 6.506 4.522 8.156 5.969 0.825 0.7233 1.448 1.382 1.787 1.859 0.3395 0.4773 0.396 0.7731 0.0859 0.7734-0.6201 7e-4 -1.676-0.6596-2.346-1.467-0.6699-0.8072-4.663-3.442-8.873-5.856-18.86-10.58-42.11-15.86-49.65-22.23-1.5-1.266-2.251-1.897-1.986-1.902zm291.4 24.1c0.2845 0.063 0.7385 1.464 1.357 4.193 2.6e-4 1e-3 -2.6e-4 8e-4 0 2e-3 0.6189 2.729 1.403 6.784 2.35 12.15 4.14 23.5 8.264 47 12.41 70.5 0.5275 3.3 1.19 7.012 1.471 8.25 0.1402 0.6187 0.1553 1.182 0.0664 1.59-0.0889 0.4078-0.2816 0.6602-0.5566 0.6602-0.55 0-1.236-1.012-1.523-2.25-6.357-31.37-11.53-63.15-15.77-94.82 0.0537-0.2012 0.1218-0.2933 0.2031-0.2754zm-338.6 48.3c-0.0099 0.0254-0.09289 0.057-0.09766 0.082-5e-3 0.0264 0.05591 0.2446 0.05273 0.2773-0.0041-0.1597 0.03164-0.2355 0.04492-0.3594zm447.2 22.04c0.275 0 0.5 0.225 0.5 0.5s-0.225 0.5-0.5 0.5-0.5-0.225-0.5-0.5 0.225-0.5 0.5-0.5zm-440 2c0.275 0 0.5 0.225 0.5 0.5s-0.225 0.5-0.5 0.5-0.5-0.225-0.5-0.5 0.225-0.5 0.5-0.5zm571.1 8.106c-0.0906 1.975-0.1721 4.302-0.3144 4.512-0.4409 0.6505-5.624 3.939-14.33 7.25 3.562-1.283 7.002-2.64 10.07-4.148l4.5-2.209zm299.3 39.69c-17.93-0.2612-36.08 4.818-38.94 15.46-3.003 11.15 5.279 19.97 21.25 22.63 14.52 2.416 27.37 1.581 37.2-1.375-0.0559 0.015-0.1081 0.0203-0.1641 0.0351-2.218 0.615-4.488 1.117-6.539 1.394-4.302 0.582-10.83 1.001-14.5 0.9316-3.673-0.0696-9.804-0.5277-13.62-1.018-3.821-0.4899-9.402-2.015-12.4-3.389-3-1.374-5.255-2.697-5.01-2.941 0.245-0.2448 3.351 0.5075 6.902 1.672 5.041 1.653 9.747 2.211 21.46 2.549 5.76 0.1664 9.911 0.1818 13.29 0 3.376-0.1818 5.978-0.5608 8.637-1.182 3.809-0.8891 8.468-2.571 10.35-3.736 1.886-1.166 4.281-3.517 5.322-5.225 1.18-1.936 1.9-4.988 1.912-8.106 0.0105-2.698 0.1682-3.925 0.541-3.914 0.1243 4e-3 0.2729 0.1442 0.4473 0.4141 0.5332 0.825 0.9745 3.525 0.9805 6 4e-3 1.204-0.1696 2.416-0.457 3.58-0.251 1.144-0.6382 2.14-1.092 3.102 1.996-3.025 2.83-6.478 2.111-10.31-2.01-10.71-19.73-16.31-37.66-16.57zm-106.6 0.082c-15.32-0.779-31.47 2.424-38.77 10.1-6.09 6.409-4.546 14.62 1.939 20.54 0.3719-0.1191 3.383 0.7875 7.096 2.172 12.58 4.694 51.17 5.957 59.73-6.066 1.456-2.044 2.283-4.814 2.424-8.113 0.1177-2.756 0.2675-5.237 0.332-5.512s0.5039 0.4 0.9766 1.5 0.891 3.486 0.9297 5.301-0.5612 4.515-1.334 6c-0.7155 1.375-2.236 3.288-3.484 4.537 5.269-4.408 7.119-10.16 3.971-16.67-3.994-8.25-18.49-13.01-33.81-13.79zm-218.8 0.127c-33.67 0-34.06 0.0585-33.33 5.193l0.3281 2.307 3.035 0.0508c-0.9086-0.1816-1.431-0.4096-1.318-0.748 0.334-1.004 4.796-1.374 19.1-1.582 10.82-0.1577 18.67 0.1121 18.67 0.6426 0 0.5033-0.562 1.13-1.25 1.393-0.613 0.2342-8.582 0.4674-17.02 0.5957l14.78 0.2441-10.45 4.309c-11.03 4.549-12.8 7.064-6.387 8.52-0.3981-0.1454-0.857-0.272-1.109-0.4629-1.757-1.329-1.147-1.469 6.418-1.469 10.64 0 20.6 1.78 22.12 3.619 0.6523 0.786 1.009 1.558 0.793 1.715-0.2159 0.1564-1.968-0.2801-3.893-0.9688-1.39-0.4975-3.44-0.7644-5.727-0.9414-0.2213-0.0183-0.4358-0.0383-0.6621-0.0547-3.74-0.2513-7.895-0.3257-11.57-0.5352 1.563 0.1366 2.524 0.3383 4.465 0.4375 12.33 0.6298 17.77 2.079 17.29 4.602-0.743 3.916-18.14 5.266-32.92 2.555l-8.625-1.582-5.162 2.615c-7.328 3.714-4.786 5.306 11.91 7.455h2e-3c15.75 2.028 35.55 0.9588 46.16-2.492 5.044-1.642 7.794-3.943 8.91-6.367-0.5343 0.78-1.248 1.595-2.043 2.264-10.59 8.912-43.95 8.926-62.36 4.582-3.034-0.7157-4.48-1.492-3.887-2.086 0.5935-0.5936 4.013-0.3632 9.191 0.6191 13.82 2.621 42.45 2.016 51.87-2.854 1.639-0.8478 3.873-2.675 4.963-4.061s2.255-2.522 2.588-2.522c-1.442-3.991-7.502-7.618-17.39-8.652-7.926-0.8285-7.689-1.161 4.17-5.84 10.73-4.234 13.15-6.211 10.9-8.916-1.148-1.383-5.27-1.584-32.57-1.584zm105 0.5234c-23.5 0.035-34.54 4.477-37.39 15.06-2.818 10.47 4.751 18.93 19.56 21.88h2e-3c13.98 2.779 29.52 2.044 40.6-1.254-2.224 0.6286-4.692 1.144-7.606 1.508-7.1e-4 9e-5 -1e-3 -9e-5 -2e-3 0-2.934 0.3662-6.205 0.6299-10.13 0.7656-6.624 0.229-14.93-0.0286-18.46-0.5723-3.53-0.5437-8.897-1.982-11.93-3.197-3.029-1.215-5.704-2.81-5.943-3.543-0.3342-1.024 0.2756-0.9659 2.627 0.25 1.684 0.8708 5.897 2.252 9.361 3.068 3.827 0.9022 11.32 1.491 19.1 1.5 8.089 9e-3 15.34-0.5646 19.71-1.557 3.797-0.8636 8.345-2.551 10.1-3.75 1.761-1.199 4.127-3.43 5.26-4.959 1.538-2.076 2.039-4.201 1.978-8.396-0.0375-2.594-0.0331-3.951 0.1348-4.385 0.1678-0.4333 0.4999 0.0573 1.113 1.164 0.1501 0.2709 0.2546 0.6906 0.3906 1.031-2.434-10.45-13.88-14.64-38.49-14.6zm-72.79 1.848c0.215 0.12 0.2812 0.5714 0.2812 1.4 0 1.595-1.827 2.786-8.637 5.637-4.75 1.988-9.702 3.883-11.01 4.211-1.305 0.3277-2.622 0.9953-2.924 1.484-0.3022 0.4891-1.236 0.8887-2.074 0.8887s-1.337-0.5625-1.107-1.25c0.588-1.764 22.08-9.95 24.29-11.78 0.5973-0.4957 0.9608-0.7059 1.176-0.5859zm183 2.309h2e-3c4.273-0.2201 8.429 0.5496 11.62 2.643 1.535 1.006 2.59 2.033 2.344 2.279s-1.749-0.063-3.338-0.6856c-2.168-0.6014-4.845-0.9535-7.537-1.178-1.306-0.0997-2.611-0.2082-3.941-0.1777-0.2063 3e-3 -0.4112 1e-3 -0.6172 8e-3 -4.156 0.1664-8.23 1.029-11.25 2.996 2.468-1.414 6.317-2.34 10.43-2.629 5.014-0.352 10.3 0.1984 13.52 1.814 8.597 4.312 7.719 17.33-1.357 20.14v2e-3c-13 4.021-24.74-0.6036-27.42-7.484 0.0946 1.665 0.2083 3.586 0.1582 3.586-0.0702-3e-4 -0.7452-0.7445-1.5-1.654-7.825-9.43 6.063-19 18.88-19.66zm-110.3 0.3574c4.779 0 8.348 0.6127 11.25 1.93 2.338 1.061 4.25 2.223 4.25 2.584 0 0.3609-0.7875 0.3464-1.75-0.0312-6.002-1.895-12.47-2.472-18.69-1.533-1.244 0.2185-2.109 0.6159-3.115 0.9473 2.581-0.7615 5.521-1.163 8.516-1.125 6.435 0.0818 12.96 1.998 15.88 5.703 4.018 5.108 1.884 13.33-4.106 15.82-14.66 6.088-30.34-1.301-29.05-11.23-0.3209 2.066-0.1498 4.037-4e-3 5.492 2.6e-4 3e-3 -2.6e-4 7e-3 0 0.01 0.0724 0.7222 0.1392 1.318 0.1348 1.732-4e-3 0.4168-0.0797 0.6524-0.291 0.6524-0.1106 0-0.723-1.146-1.361-2.547-1.72-3.775-3.431-18.41 18.34-18.41zm217.1 0.1484h2e-3c6.651-0.3491 8.952-0.0547 12.77 1.635 2.562 1.133 4.656 2.512 4.656 3.064 0 0.2837-0.4091 0.3607-1.082 0.2539-0.6729-0.1068-1.61-0.3973-2.668-0.8496-0.9501-0.4061-2.389-0.6967-3.881-0.959-1.416-0.2156-2.993-0.3728-4.662-0.4648 2.363 0.1112 4.664 0.4278 6.664 1.088 10.14 3.348 10.4 17.8 0.375 20.9-17.17 5.321-30.63-2.576-26.33-15.42-0.4876 0.8901-0.8291 1.902-1.041 3.016-0.0137 0.0761-0.0503 0.1337-0.0625 0.2109-0.2008 1.19-0.232 2.513-0.043 3.998 0.2687 2.384 0.3346 4.334 0.1465 4.334-0.188 0-0.8077-0.8698-1.377-1.934-0.5694-1.064-1.035-3.582-1.035-5.596 0.626-9.697 8.605-13.26 17.57-13.28zm2.43 2.5c-0.9174 0.0121-1.809 0.2474-2.732 0.3223 1.435-0.1526 2.896-0.2348 4.342-0.2148-0.5616-0.0183-1.033-0.1074-1.609-0.1074zm-3.111 0.3672c-4.135 0.3787-8.212 1.252-11.02 3.527 2.535-1.757 6.633-3.015 11.02-3.527zm-139.1 22.7c3.579 3.156 8.512 5.663 14.59 6.766 12.34 2.24 23.64 2.018 33.04 0.2422-0.3401 0.053-0.7711 0.0368-1.117 0.0859-3.454 0.4964-7.176 0.7924-11.15 0.8711-0.9147 0.0166-1.838-0.0104-2.775-0.0176-4.428-0.0265-9.02-0.2351-13.85-0.8418-4.314-0.5422-9.426-2.064-13.32-3.969-3.163-1.547-5.148-2.745-5.426-3.137zm-720.2 30.74c-10.31 0-33.44 24.11-32.69 44.5 0.754 20.39 12.28 37.8 33.19 44.03 0 0 1.018 2e-3 1.027 2e-3 -1.929-0.6703-3.699-1.459-5.691-2.383-2.692-1.228-5.082-2.414-5.891-2.938-1.882-1.219-3.425-2.53-3.432-2.914-7e-3 -0.3836 3.024 0.7414 6.736 2.5 11.15 5.279 943.9 4.526 952.5 0.4941 3.258-1.527 8.174-5.105 11.29-8.225 3.46-3.46 6.713-8.054 8.709-12.3 2.828-6.01 3.243-8.428 3.537-17.28 0.2939-8.847-0.05-11.76-1.621-16.74-1.084-3.434-1.404-5.677-1.223-5.781 0.9088 1.528 1.736 3.134 2.477 4.793 0.7291 1.619 1.357 3.292 1.906 4.992 1.111 3.437 1.792 6.978 2.012 10.47-0.044-4.035-0.2976-7.984-0.8594-10.38-3.199-13.66-14.41-24.46-32-32.85zm460.3 13.64c0.3152-0.0832 0.5993-0.0471 0.7754 0.1289 0.3521 0.3521 0.277 1.447-0.168 2.434-0.4449 0.9862-1.325 4.718-1.955 8.293s-2.877 14.94-4.992 25.25c-2.656 12.95-4.254 18.75-5.168 18.75-0.7276 0-1.315-0.112-1.303-0.25s2.435-12.1 5.385-26.58c2.949-14.48 5.856-26.83 6.461-27.43 0.3022-0.3022 0.6496-0.5048 0.9648-0.5879zm32.99 0.084c0.6498-0.2166 1.182 0.0824 1.182 0.666 0 0.583-3.336 8.02-7.414 16.52-4.078 8.505-7.707 16.39-8.066 17.52-0.3593 1.132-1.047 2.059-1.525 2.059-0.4788 0-0.7991-0.9361-0.7129-2.08s3.576-9.328 7.756-18.19c4.18-8.86 8.131-16.28 8.781-16.5zm-337.5 0.9219c0.1009 0.1947 0.0499 12.39-0.1133 27.1-0.1784 16.09-0.6766 26.75-1.25 26.75-0.2901 0-0.5276-2.586-0.6934-7.182-2e-5 -4.7e-4 1e-5 -1e-3 0-2e-3 -0.1657-4.598-0.2598-11.21-0.2598-19.26 0-17.65 0.3546-26.66 1.066-27.1 0.5866-0.3625 1.149-0.5012 1.25-0.3086zm338.4 2.41 9.125 50.66-8.379-0.3867-4.17-25.41-13.03 26.56-10.93-19.36c0.3322 1.232 1.952 5.139 4.25 10.02 1.25 2.656 2.353 5.206 3.123 7.176 0.7703 1.97 1.208 3.359 1.127 3.691-0.1616 0.6647-2.477-3.661-5.143-9.611-2.666-5.95-4.613-11.4-4.328-12.11 0.1164-0.2902 0.1745-0.3216 0.252-0.4414l-2.539-4.496-5.266 24.24-7.301 0.207 9.654-48.28 17.3 32.24zm-337.7 1.394 33.13 33.05 0.2012-11.51c-0.0989 4.975-0.2099 10.51-0.4668 10.51-0.3483-6e-4 -0.9047-1.014-1.236-2.252-0.3316-1.237-0.6092-8.204-0.6172-15.48-0.0135-13.08 0.0135-13.24 2.348-13.82 1.299-0.326 3.853-0.4456 5.674-0.2676v-2e-3c0.8344 0.0816 1.603 0.2872 2.248 0.5293l0.7344 2e-3 -6e-3 0.4394c0.2759 0.182 0.664 0.3543 0.7266 0.5449 0.1147 0.3496-0.1743 0.6353-0.748 0.873l-0.7344 49.29-32.6-31.57-0.2656 29-8.385 0.2148zm-81.33 0.0605c1.742-8e-3 3.877 0.2572 4.744 0.5898 0.8668 0.3326 1.328 1.008 1.023 1.5-0.3043 0.4924-2.552 0.8945-4.994 0.8945-4.441 0-4.441 4.5e-4 -4.441 16.57 0 9.954-0.4308 17.37-1.08 18.58-0.269 0.5028-0.887 1.098-1.592 1.668 1.824-1.259 3.162-2.533 3.166-2.854l0.2285-16.48c0.1262-9.065 0.4656-16.48 0.7539-16.48 0.2711 1e-3 1.057 1.8e-4 7.023-4e-3l-1 35.87c-14.15 19.04-29.11 7.09-32.21 1.617l-2.254-3.98-0.01563-16.75-0.01563-15.08c-0.558 1.926-0.6561 5.407-0.7891 12.32-0.1534 7.971 0.1526 16.52 0.6797 18.99 0.5271 2.471 0.7719 4.681 0.543 4.91-0.229 0.229-1.098-1.215-1.93-3.207-1.15-2.752-1.514-7.707-1.514-20.63 1e-6 -17.01-2.65e-4 -17.01 2.361-17.6 1.299-0.326 3.853-0.4456 5.674-0.2676v-2e-3c1.821 0.178 3.488 0.8597 3.703 1.516 0.129 0.3933-0.1826 0.7174-0.9238 0.9688-0.7412 0.2513-1.912 0.4298-3.5 0.5312-0.9809 0.0627-1.647 0.1676-2.272 0.3301-0.4204 0.1146-0.8151 0.2389-1.111 0.4824h7.076v32.89c0 0.552 2.322 2.954 5.176 4.492-0.4805-0.2964-0.952-0.6153-1.223-0.9414-1.017-1.225-0.5461-1.348 3.19-0.8359 3.498 0.4793 4.883 0.1933 6.869-1.414 2.458-1.989 2.492-2.231 2.742-19.3 0.1827-12.48 0.5995-17.5 1.5-18.07 0.6859-0.4355 2.672-0.8006 4.414-0.8086zm596.7 0c7.793 8e-3 14.83 0.4353 15.64 0.9473 1.296 0.8196 1.296 0.9961 0 1.475-0.81 0.2989-7.997 0.6596-15.97 0.8027-7.397 0.1329-10.97 0.2124-12.7 0.7422l28.31 0.0215-0.8066 6.902-10.29 0.5977 2e-3 37.34-7.459 0.709-0.541-38.05-10.62-0.6074 1.357-6.877c-1.577 0.5143-1.574 1.424-1.418 3.23 0.2495 2.885-0.041 3.75-1.254 3.75-1.221 0-1.576-1.104-1.576-4.893 0-3.539 0.4378-5.061 1.582-5.5 0.87-0.3338 7.958-0.5998 15.75-0.5918zm-298.2 0.1602c1.864 0.1781 3.389 0.7723 3.389 1.322s-2.025 1.225-4.5 1.5l-4.5 0.5-0.2676 23.25c-0.1658 14.36-0.6438 23.25-1.25 23.25-0.6154 0-0.9824-9.134-0.9824-24.48 0-24.48-2.6e-4 -24.48 2.361-25.07 1.299-0.326 3.886-0.4456 5.75-0.2676zm210 2e-3c1.864 0.1781 3.389 0.7722 3.389 1.322s-2.138 1.137-4.75 1.305l-4.75 0.3066v23.44c0 14.96-0.3618 23.44-1 23.44-0.6394 0-1-8.826-1-24.48 0-24.48-2.6e-4 -24.48 2.361-25.07 1.299-0.326 3.886-0.4456 5.75-0.2676zm-305 0.0117c2.335 0.1712 4.43 0.873 4.656 1.561 0.2886 0.8775-0.9498 1.25-4.154 1.25h-4.564l-0.0117 1.004h7.977v38h14v7h-22v-42.96l-0.2324 20.12c-0.2022 17.45-0.578 23.27-1.52 23.58-0.9768 0.325-1.25-4.821-1.25-23.54 0-19.53 0.2636-24.18 1.426-25.14 0.7843-0.651 3.338-1.044 5.674-0.873zm494.4 0.0234c7.808 0.1733 13 0.6865 13 1.287 0 0.5952-5.667 1.202-14 1.5l-14 0.5c-0.1777 15.44 0.381 31.24-1.518 46.5-0.102 0-0.3534-3.026-0.6035-7.582-0.7505-13.67-1.488-41.1 1.871-41.94 1.238-0.3067 8.1-0.4262 15.25-0.2676zm86.09 0.1738c1.423-0.3571 6.486-0.3336 11.25 0.0508 4.764 0.3844 10.46 1.502 12.66 2.484s4.883 2.779 5.961 3.992c0.8949 1.007 1.267 1.498 0.7969 1.416-0.4698-0.0819-1.781-0.7362-4.254-2.02-4.935-2.562-6.352-2.812-15.96-2.812h-10.54l-0.2676 23.25c-0.1658 14.36-0.6438 23.25-1.25 23.25-0.6154 0-0.9824-9.132-0.9824-24.48 0-24.48 1.9e-4 -24.48 2.588-25.13zm-100.6 3.117 26 0.4785 0.3144 6.522-18.66 1 0.2578 9.488 18.08 0.0117v6.926l-18.09 0.1875-6e-3 14.48 18.01 0.0801-0.127 6.217-25.79 0.6074zm101 0c8.674 0.4219 18.38-0.3815 26.33 3.394 15.74 9.725 13.17 34.43-4.209 40.56h-2e-3c-7.126 2.222-14.78 1.345-22.12 1.543zm-491 0.5h8v45h-8zm217 0v44.78l-7.012 0.2676 0.3555-45.05zm282 7v31.25l5.543-0.459c21.01-1.742 20.06-30.79-1.002-30.79zm-201 1.496c1.397-0.864 1.346 37.5 0 37.5-0.3455 0-0.6012-2.292-0.7695-5.744-0.505-10.36-0.2245-31.14 0.7695-31.76zm110.5 5.512c4.277-0.0125 8.457 0.3046 8.457 0.9883 0 1.3-18.37 1.409-17.5 0 0.3918-0.6338 4.766-0.9758 9.043-0.9883zm109 1.611c0.124-0.0186 0.2706 0.1096 0.4434 0.377 0.5332 0.825 0.9745 3.75 0.9805 6.5 0.01 3.216-0.6839 6.144-1.94 8.203-1.074 1.761-3.314 3.905-4.978 4.766-1.665 0.8609-5.121 1.852-7.68 2.203-3.72 0.5098-4.56 0.3596-4.189-0.752 0.2548-0.7646 2.321-1.708 4.59-2.096 2.269-0.3873 5.07-1.21 6.225-1.828 1.155-0.6182 2.974-2.556 4.043-4.309 1.292-2.119 1.948-5.029 1.961-8.688 0.0105-2.941 0.173-4.321 0.5449-4.377zm-395.2 8.606v2e-3c0.298 0.4271 0.635 2.34 1.227 6.27 0.6624 4.4 1.53 9.688 1.928 11.75 0.4794 2.486 0.3549 3.75-0.3691 3.75-0.6008 0-1.295-1.012-1.543-2.25s-0.9613-5.092-1.584-8.568c-0.6227-3.476-0.796-7.751-0.3848-9.5 0.1632-0.6943 0.3021-1.18 0.4336-1.404 0.0986-0.168 0.1937-0.1912 0.293-0.0488zm481.3 7.375c-0.3385 1.977-0.8835 3.62-1.422 5.264 0.4334-1.11 0.9088-2.188 1.26-3.363 0.098-0.4325 0.082-1.368 0.1621-1.9zm-680 3.396c3.955 0 5.385 0.3514 5.088 1.25-0.2615 0.7914-2.861 1.36-7.084 1.547-3.7 0.164-6.67-0.1219-6.67-0.6426 0-0.5163 0.7121-1.213 1.582-1.547 0.87-0.3338 4.058-0.6074 7.084-0.6074zm485.3 0.2109c7.212-0.2248 9.17-3e-3 8.838 1-0.298 0.899-3.23 1.375-9.693 1.576-7.212 0.2248-9.17 3e-3 -8.838-1 0.298-0.899 3.23-1.375 9.693-1.576zm-793.7 19.98c0.0761-0.0761 0.2966-6e-3 0.6543 0.2148 0.635 0.3924 1.154 0.9118 1.154 1.154s-0.1989 0.4394-0.4414 0.4394-0.7619-0.5193-1.154-1.154c-0.221-0.3576-0.289-0.5782-0.2129-0.6543z" fill="#fbbb4d"/><path d="m420.9 2.254c-0.9952 0.3317-1.307 30.32-1.508 145.6l-0.252 145.2c-137.7 2.858-276.8-3.939-414.4 0.6074-0.87 0.3338-1.582 1.009-1.582 1.502 0 0.8849 133.4 0.7366 418.5 0.3906l0.2539-146.8c0.2024-117.3 1e-3 -146.8-1-146.4zm-51.14 39.75c-1.95 0-68.61 133.4-68.61 135.9 0 1.151 0.185 2.092 0.4102 2.092 0.0979 0 61.81-120.8 69.59-137.6 0-0.2175-0.6243-0.3965-1.387-0.3965zm-135.8 0.252v2e-3c-0.9577 0.3675-36.14 156.5-42.78 194.6 0 0.6427 0.4207 1.168 0.9336 1.168 0.5129 0 1.18-0.7875 1.482-1.75 0.3028-0.9625 0.9339-4.012 1.529-6.75l40.19-184.8c0.5525-1.016 0.7679-2.086 0.4785-2.375-0.2894-0.2894-1.114-0.3009-1.832-0.02539zm-150.9 11.86c-8.434 0.2669-19.5 1.985-30.78 7.629-9.366 4.689-34.1 23.01-26.67 50.92 0.6628 2.489 1.377 4.535 1.83 5.539 0 0 2.082 3.883 3.176 5.644 0.3924 0.635 0.9118 1.154 1.154 1.154s0.5546-0.2249 0.4414-0.4395c0 0-2.849-5.676-3.525-6.914-0.3606-0.6599-0.6094-2.172-0.6094-2.172-4.07-19.71 3.472-37.19 20.14-48.32 28.92-19.31 67.97-6.477 75.6 1.951 0.9418 1.041 2.201 1.891 2.797 1.891 0.5962 0-0.7123-1.565-2.906-3.48-2.194-1.915-6.912-5.02-10.49-6.898-7.059-3.891-14.86-5.22-22.69-6.385-2.135-0.142-4.654-0.214-7.465-0.125zm931.6 0.1152c-0.1117-0.1488-0.9156 0.0032-1.793 0.3398l-65.75 101.6-0.4355 77.34c-11.04 1.311-23.1-1.493-33.93 1.527 11.58 1.8 24.45 0.9727 36.43 0.9727v-78.27c21.07-34.97 45.08-68.14 65.48-103.5zm-182.5 0.2539c8.9e-4 -5.46e-4 1e-3 0.0044 2e-3 0.0039v-0.0039zm2e-3 0.0039c-0.6236 0.3854-1.025 6.292-1.025 15.08v14.44h-27.92c-15.36 0-28.63 0.2736-29.5 0.6074-3.445 48.69-1.584 100.1-1.584 149.4-10.67 1.565-23.15-2.579-33.5 1 11.36 1.818 23.8 1 35.49 1l0.5117-148.5 58-1 0.2754-16.32c0.1845-10.95-0.0617-16.1-0.748-15.69zm-175 0.01563c-0.6546 0.4046-1 31.51-1 90.06v89.44c-11.15 0.938-23.01-1.581-34 1 11 1.979 24.32 0.9915 36 1v-91.06c0-60.45-0.3361-90.85-1-90.44zm-486.9 2.5c-11.87 0-16.26 0.3378-17.25 1.322-1.079 1.079-1.273 17.66-1.061 90.55 0.171 58.52 0.6011 89.02 1.25 88.62 0.6404-0.3958 0.9883-31.81 0.9883-89.05v-88.44h16c13.56 0 16-0.2292 16-1.5 0-1.27-2.436-1.5-15.93-1.5zm425.4 8.332c-0.5968 0.1978-1.202 8.081-1.5 19.55-0.2998 11.52-0.1184 19.6 0.4512 20.17 0.5225 0.5209 1.198 0.9473 1.5 0.9473s0.5488-9.225 0.5488-20.5c0-13.22-0.3551-20.38-1-20.17zm-62.61 15.9c-2.874 0.1778-5.494 0.5724-8.486 1.223-31.92 6.938-58.92 37.99-51.3 74.75 0.6036 2.915 2.267 7.65 3.695 10.52 1.428 2.872 2.768 5.052 2.977 4.844 0.2085-0.2085-0.2688-1.659-1.061-3.223-0.7917-1.564-2.062-5.319-2.82-8.344-0.4954-1.975-9.719-40.75 23.6-64.53 13.31-9.497 24.12-11.21 29.7-12.1 23.49-3.721 43.46 5.008 58.06 15.28 2.612 1.839 4.75 3.314 4.75 2.346-11.62-13.21-32.44-18.92-49.1-20.7-4.012-0.217-8.576-0.167-10.01-0.07813zm177.4 2.988c-13.76-0.1427-27.83-0.02419-29.09 0.2852-1.26 0.3081-2.017 1.003-1.682 1.545 0.8247 1.334 57.97 0.8296 57.97-0.5449 0-0.7385-13.44-1.142-27.2-1.285zm-644.8 31.33c-0.2644 5e-3 0.4864 0.6369 1.986 1.902 7.544 6.364 30.79 11.65 49.65 22.23 4.21 2.413 8.203 5.048 8.873 5.856 0.6699 0.8072 1.726 1.468 2.346 1.467 0.6202-6.7e-4 -0.2231-1.186-1.873-2.633-1.65-1.447-5.321-4.132-8.156-5.969-14.3-9.259-36.37-14.98-48.73-20.99-2.558-1.244-3.837-1.867-4.102-1.861zm291.4 24.1c-0.0813-0.0179-0.1495 0.0742-0.2031 0.2754 4.241 31.67 9.417 63.45 15.77 94.82 0.287 1.238 0.9735 2.25 1.523 2.25 0.55 0 0.7707-1.012 0.4902-2.25-0.2804-1.238-0.9432-4.95-1.471-8.25-4.142-23.5-8.267-47-12.41-70.5zm-108.6 1.684c-0.2914 0.1682 3.238 7.91 7.77 17.06l9.826 19.85c0.482 1.238 6.594 13.95 13.58 28.25s14.26 29.31 16.17 33.35c1.904 4.042 3.696 7.115 3.982 6.828s-4.747-11.24-11.19-24.35c-6.44-13.1-14.16-28.89-17.16-35.08l-14.43-29.63s-8.259-16.45-8.55-16.29zm-139.7 32.84s1.259 19.18-5.762 27.37c-16.08 17.44-41.99 3.258-42.6 3.869-0.1931 0.1931 1.281 1.359 3.275 2.592 9.592 5.928 30.02 8.683 41.83-5.113 11.94-13.95 3.273-28.8 3.273-28.8l-0.0191 0.0817zm-75.58 6.728c-9.294 1.825-17.1 3.839-17.34 4.477s0.3674 4.361 1.361 8.275c0.994 3.914 2.974 9.418 4.398 12.23s2.815 5.111 3.088 5.111c0.2731 0-0.2542-1.688-1.17-3.75-0.9158-2.062-2.507-6.9-3.535-10.75s-1.745-7.658-1.592-8.463c0.1982-1.042 4.846-2.391 16.11-4.676l16.61-4.399s-6.195-0.3594-17.93 1.944zm563 1.486c-0.3537-3e-3 -1.094 2.318-1.428 3.188-0.3338 0.87-0.6074 9.811-0.6074 19.87v18.28c-12.57 6.094-25.9 10.26-39.72 12.36-16.48 2.205-49.2 1.66-78.3-18.1-3.448-2.341-5.958-3.754-5.578-3.139 0.3801 0.615 3.525 3.14 6.988 5.611 23.71 16.92 49.99 19.5 67.02 18.91 30.79-1.204 50.94-13.43 51.84-14.75 0.4157-0.6136 0.6407-10 0.5-20.86-0.1407-10.86-0.3671-21.36-0.7207-21.36zm-130.5 27.6c-0.275 0-0.5 0.225-0.5 0.5s0.225 0.5 0.5 0.5 0.5-0.225 0.5-0.5-0.225-0.5-0.5-0.5zm-440 2c-0.275 0-0.5 0.225-0.5 0.5s0.225 0.5 0.5 0.5 0.5-0.225 0.5-0.5-0.225-0.5-0.5-0.5zm577.2 50.38c-0.215-0.1199-0.5785 0.0902-1.176 0.5859-2.211 1.835-23.7 10.02-24.29 11.78-0.2292 0.6875 0.2691 1.25 1.107 1.25s1.772-0.3996 2.074-0.8887c0.3023-0.4891 1.618-1.157 2.924-1.484 1.305-0.3276 6.258-2.223 11.01-4.211 6.81-2.85 8.637-4.042 8.637-5.637 0-0.829-0.0663-1.28-0.2812-1.4zm183 2.309c-12.82 0.6622-26.71 10.23-18.88 19.66 0.7548 0.9098 1.43 1.654 1.5 1.654s-0.0292-2.261-0.2207-5.025c-1.183-14.76 18-14.89 28.23-12.05 1.589 0.6226 3.091 0.932 3.338 0.6856s-0.8086-1.273-2.344-2.279c-3.192-2.093-7.348-2.863-11.62-2.643zm-110.3 0.3574c-21.77 0-20.06 14.63-18.34 18.41 0.6383 1.401 1.251 2.547 1.361 2.547 1.687 0-5.294-14.96 12.04-18.01 6.222-0.9383 12.69-0.362 18.69 1.533 0.9625 0.3776 1.75 0.3921 1.75 0.0312 0-0.3607-1.912-1.523-4.25-2.584-2.902-1.317-6.471-1.93-11.25-1.93zm217.1 0.1484c-8.963 0.0144-16.94 3.581-17.57 13.28 0 2.014 0.4657 4.532 1.035 5.596 0.5693 1.064 1.189 1.934 1.377 1.934 0.1881 0 0.1222-1.95-0.1465-4.334-1.422-11.17 8.714-13.85 17.73-13.97 4.654 0 8.923 0.6091 11.25 1.604 2.117 0.9046 3.75 1.163 3.75 0.5957 0-0.5529-2.094-1.931-4.656-3.064-3.819-1.69-6.121-1.984-12.77-1.635zm-334.2 0.0351c-14.31 0.2085-18.77 0.5784-19.1 1.582-0.3498 1.051 3.083 1.273 17.42 1.121 9.819-0.1038 18.42-0.4052 19.1-0.668s1.25-0.8893 1.25-1.393c0-0.5305-7.846-0.8003-18.67-0.6426zm154.2 7.711c-0.1678 0.4333-0.1723 1.791-0.1348 4.385 0.0606 4.195-0.4405 6.32-1.978 8.396-1.133 1.529-3.499 3.76-5.26 4.959-1.761 1.199-6.309 2.886-10.1 3.75-4.362 0.9921-11.62 1.566-19.71 1.557-7.777-9e-3 -15.28-0.5978-19.1-1.5-3.465-0.8168-7.678-2.198-9.361-3.068-2.351-1.216-2.961-1.274-2.627-0.25 0.2394 0.7332 2.914 2.328 5.943 3.543 3.029 1.215 8.396 2.654 11.93 3.197 3.53 0.5436 11.84 0.8013 18.46 0.5723 8.33-0.288 14.1-1.052 18.7-2.475 3.663-1.132 8.092-3.262 9.842-4.734s3.797-4.146 4.547-5.941c0.7502-1.796 1.348-4.517 1.328-6.047s-0.6326-3.861-1.363-5.18c-0.6134-1.107-0.9454-1.597-1.113-1.164zm109.5 0.0606c-0.0645 0.275-0.2144 2.756-0.332 5.512-0.1409 3.299-0.9681 6.069-2.424 8.113-8.561 12.02-47.15 10.76-59.73 6.066-3.83-1.428-7.124-2.436-7.32-2.24-0.196 0.196 2.487 1.747 5.963 3.447 3.895 1.905 9.007 3.427 13.32 3.969 21.63 2.718 40.35-0.6466 47.33-7.166 1.297-1.211 2.991-3.415 3.764-4.9 0.7728-1.485 1.373-4.185 1.334-6s-0.457-4.201-0.9297-5.301-0.9121-1.775-0.9766-1.5zm109.5 0.5859c-0.3728-0.0107-0.5305 1.216-0.541 3.914-0.0119 3.117-0.7318 6.17-1.912 8.106-1.041 1.708-3.436 4.059-5.322 5.225s-6.545 2.847-10.35 3.736c-5.318 1.242-10.4 1.514-21.92 1.182-11.71-0.3382-16.42-0.8962-21.46-2.549-3.551-1.164-6.657-1.917-6.902-1.672-0.2448 0.2449 2.01 1.568 5.01 2.941 3 1.373 8.582 2.899 12.4 3.389 3.821 0.4899 9.952 0.948 13.62 1.018 3.673 0.0696 10.2-0.3496 14.5-0.9316 4.54-0.6142 10.44-2.267 14.05-3.938 4.257-1.968 6.865-3.926 8.246-6.191 1.245-2.042 2.018-5.042 2.008-7.814-6e-3 -2.475-0.4473-5.175-0.9805-6-0.1744-0.2698-0.323-0.4105-0.4473-0.4141zm-369.6 5.414c-7.565 0-8.175 0.14-6.418 1.469 3.268 2.472 19.66 0.827 25.44 2.896 1.925 0.6887 3.677 1.125 3.893 0.9688 0.2159-0.1564-0.1406-0.9289-0.793-1.715-1.526-1.839-11.49-3.619-22.12-3.619zm43.42 6c-0.3333 0-1.498 1.136-2.588 2.522s-3.324 3.213-4.963 4.061c-9.417 4.87-38.05 5.474-51.87 2.854-5.178-0.9823-8.598-1.213-9.191-0.6191-0.5935 0.5935 0.8531 1.37 3.887 2.086 18.41 4.344 51.77 4.33 62.36-4.582 1.633-1.374 2.969-3.357 2.969-4.408s-0.2721-1.912-0.6055-1.912zm-112.6 50.15c-0.3152 0.0831-0.6626 0.2857-0.9648 0.5879-0.6044 0.6044-3.512 12.95-6.461 27.43-2.949 14.48-5.373 26.45-5.385 26.58s0.5752 0.25 1.303 0.25c0.9134 0 2.512-5.804 5.168-18.75 2.115-10.31 4.362-21.68 4.992-25.25 0.6302-3.575 1.51-7.307 1.955-8.293 0.4449-0.9862 0.5201-2.082 0.168-2.434-0.176-0.176-0.4602-0.2121-0.7754-0.1289zm32.99 0.084c-0.6498 0.2166-4.602 7.642-8.781 16.5-4.18 8.86-7.67 17.04-7.756 18.19s0.2341 2.08 0.7129 2.08c0.4788 0 1.166-0.9264 1.525-2.059 0.3593-1.132 3.989-9.015 8.066-17.52 4.078-8.505 7.414-15.94 7.414-16.52 0-0.5836-0.5318-0.8826-1.182-0.666zm-337.5 0.9219c-0.1009-0.1926-0.6634-0.0539-1.25 0.3086-0.7119 0.44-1.066 9.453-1.066 27.1 0 16.1 0.3727 26.44 0.9531 26.44 0.5734 0 1.072-10.66 1.25-26.75 0.1631-14.71 0.2142-26.9 0.1133-27.1zm-80.65 3.865c-1.742 8e-3 -3.728 0.3731-4.414 0.8086-0.9005 0.5718-1.317 5.59-1.5 18.07-0.2499 17.07-0.2847 17.31-2.742 19.3-1.986 1.607-3.372 1.893-6.869 1.414-3.736-0.512-4.206-0.3894-3.19 0.8359 0.6561 0.7905 2.172 1.628 3.369 1.861 1.198 0.2331 2.306 0.4856 2.461 0.5605 0.1552 0.0749 1.805-0.5008 3.668-1.279 1.863-0.7784 3.874-2.325 4.469-3.436 0.6493-1.213 1.08-8.63 1.08-18.58 0-16.57 4.4e-4 -16.57 4.441-16.57 2.442 0 4.69-0.4022 4.994-0.8945 0.3043-0.4923-0.1567-1.167-1.023-1.5-0.8668-0.3326-3.002-0.5978-4.744-0.5898zm596.7 0c-7.792-8e-3 -14.88 0.258-15.75 0.5918-1.144 0.4391-1.582 1.961-1.582 5.5 0 3.788 0.3555 4.893 1.576 4.893 1.213 0 1.503-0.8652 1.254-3.75-0.3242-3.75-0.3258-3.749 14.17-4.01 7.974-0.1432 15.16-0.5038 15.97-0.8027 1.296-0.4785 1.296-0.655 0-1.475-0.8096-0.512-7.848-0.9393-15.64-0.9473zm-622.3 0.1602v2e-3c-1.821-0.178-4.375-0.0584-5.674 0.2676-2.362 0.5927-2.361 0.5929-2.361 17.6 0 12.93 0.364 17.88 1.514 20.63 0.8322 1.992 1.701 3.436 1.93 3.207 0.2289-0.2289-0.01589-2.439-0.543-4.91-0.5271-2.471-0.8331-11.02-0.6797-18.99 0.2789-14.49 0.2795-14.5 5.094-14.8 3.176-0.2028 4.682-0.7133 4.424-1.5-0.2152-0.6559-1.882-1.338-3.703-1.516zm146 0v2e-3c-1.821-0.178-4.375-0.0584-5.674 0.2676-2.334 0.5858-2.361 0.7452-2.348 13.82 8e-3 7.277 0.2856 14.24 0.6172 15.48 0.3316 1.238 0.888 2.251 1.236 2.252 0.3483 6e-4 0.6328-6.412 0.6328-14.25 0-14.25 3.4e-4 -14.25 4.814-14.56 3.176-0.2028 4.682-0.7133 4.424-1.5-0.2152-0.6559-1.882-1.338-3.703-1.516zm178.1 0v2e-3c-1.864-0.178-4.451-0.0584-5.75 0.2676-2.362 0.5927-2.361 0.5916-2.361 25.07 0 15.35 0.3671 24.48 0.9824 24.48 0.6062 0 1.084-8.89 1.25-23.25l0.2676-23.25 4.5-0.5c2.475-0.275 4.5-0.95 4.5-1.5s-1.525-1.144-3.389-1.322zm210 2e-3c-1.864-0.178-4.451-0.0584-5.75 0.2676-2.362 0.5927-2.361 0.5916-2.361 25.07 0 15.65 0.3606 24.48 1 24.48 0.6382 0 1-8.482 1-23.44v-23.44l4.75-0.3066c2.612-0.1676 4.75-0.7547 4.75-1.305s-1.525-1.144-3.389-1.322zm-305 0.0117c-2.335-0.1711-4.89 0.2221-5.674 0.873-1.162 0.9645-1.426 5.617-1.426 25.14 0 18.72 0.2732 23.87 1.25 23.54 0.9415-0.3134 1.317-6.134 1.52-23.58l0.2676-23.17h4.564c3.204 0 4.443-0.3725 4.154-1.25-0.2261-0.6875-2.321-1.389-4.656-1.561zm494.4 0.0234c-7.15-0.1587-14.01-0.0391-15.25 0.2676-4.478 1.11-1.675 49.52-1.268 49.52 1.899-15.26 1.34-31.06 1.518-46.5l14-0.5c8.333-0.2976 14-0.9048 14-1.5 0-0.6006-5.192-1.114-13-1.287zm86.09 0.1738v2e-3c-2.588 0.6495-2.588 0.6499-2.588 25.13 0 15.35 0.367 24.48 0.9824 24.48 0.6062 0 1.084-8.89 1.25-23.25l0.2676-23.25h10.54c9.607 0 11.02 0.251 15.96 2.812 4.945 2.567 5.247 2.618 3.457 0.6035-1.078-1.214-3.761-3.01-5.961-3.992-2.2-0.9824-7.898-2.1-12.66-2.484-4.764-0.3844-9.827-0.4079-11.25-0.0508zm107.4 4.09c-0.1809 0.1045 0.1391 2.348 1.223 5.781 1.571 4.981 1.915 7.893 1.621 16.74s-0.7091 11.26-3.537 17.28c-1.996 4.243-5.249 8.837-8.709 12.3-3.119 3.119-8.035 6.698-11.29 8.225-8.604 4.032-941.4 4.785-952.5-0.4941-3.712-1.759-6.743-2.884-6.736-2.5 0.0068 0.3836 1.55 1.696 3.432 2.914 1.882 1.218 12.17 6.279 15.55 6.279l935.7 6e-3c3.694 2e-5 9.435-5.768 12.51-7.971 3.076-2.203 7.233-6.241 9.238-8.973 2.005-2.732 5.431-6.759 7.215-11.08 1.784-4.325 2.784-10.36 2.807-17.12-0.2379-7.332-2.738-15.03-6.514-21.37zm-300 8.023c-1.325 0.8192-1.382 37.5 0 37.5 1.346 0 1.397-38.36 0-37.5zm110.5 5.512c-4.277 0.0125-8.651 0.3544-9.043 0.9883-0.8706 1.409 17.5 1.3 17.5 0 0-0.6837-4.18-1.001-8.457-0.9883zm109 1.611c-0.3719 0.0557-0.5344 1.436-0.5449 4.377-0.0127 3.658-0.6687 6.568-1.961 8.688-1.068 1.752-2.888 3.69-4.043 4.309-1.155 0.6182-3.956 1.441-6.225 1.828-2.269 0.3873-4.335 1.331-4.59 2.096-0.3705 1.112 0.4699 1.262 4.189 0.752 2.559-0.3507 6.015-1.342 7.68-2.203 1.665-0.8609 3.905-3.005 4.978-4.766 1.256-2.059 1.95-4.987 1.94-8.203-6e-3 -2.75-0.4473-5.675-0.9805-6.5-0.1728-0.2673-0.3194-0.3955-0.4434-0.377zm-395.2 8.606c-0.0993-0.1423-0.1944-0.1191-0.293 0.0488-0.1314 0.224-0.2704 0.71-0.4336 1.404-0.4113 1.749-0.238 6.024 0.3848 9.5 0.6227 3.476 1.336 7.331 1.584 8.568 0.248 1.238 0.9422 2.25 1.543 2.25 0.724 0 0.8486-1.264 0.3691-3.75-0.3978-2.062-1.265-7.35-1.928-11.75-0.5916-3.929-0.9286-5.842-1.227-6.27zm-24.6 0.8203c-0.0928 9e-3 -0.228 0.2542-0.4238 0.7422-0.2851 0.7106 1.662 6.161 4.328 12.11 2.666 5.95 4.981 10.28 5.143 9.611 0.1616-0.6642-1.751-5.555-4.25-10.87-2.499-5.313-4.58-10.22-4.623-10.9-0.0299-0.4707-0.081-0.7028-0.1738-0.6953zm-174.1 9.951c-3.026 0-6.214 0.2736-7.084 0.6074-0.87 0.3338-1.582 1.031-1.582 1.547 0 0.5207 2.97 0.8065 6.67 0.6426 4.223-0.1872 6.822-0.7554 7.084-1.547 0.2969-0.8986-1.133-1.25-5.088-1.25zm485.3 0.2109c-6.463 0.2015-9.395 0.6772-9.693 1.576-0.3324 1.003 1.626 1.225 8.838 1 6.463-0.2015 9.395-0.6772 9.693-1.576 0.3325-1.003-1.626-1.225-8.838-1zm-793.7 19.98c-0.07609 0.0761-0.0081 0.2966 0.2129 0.6543 0.3924 0.635 0.9118 1.154 1.154 1.154s0.4414-0.1969 0.4414-0.4394-0.5193-0.7618-1.154-1.154c-0.3576-0.221-0.5782-0.2909-0.6543-0.2148z" fill="#815204" stroke="#815204" stroke-width="2"/></svg>
