<svg width="1143.7" height="276" version="1.1" viewBox="0 0 1143.7 276" xmlns="http://www.w3.org/2000/svg"><g fill-rule="evenodd"><path d="m150.45 180.39-12 84.5 868 5.66-0.354-83.4z" fill="#fff"/><path d="m828.45 10.087 30.1 29 31.5-31.3 48.8 3.73-41.6 150-839 6.4-51.9-24.4 27.4-35.8 26.7 14.6 22.8-4.91-43.9-34.8-6.62-24.3 15.8-33.9 48.9-21.5 53 13.9 15.9 11.9 7.19-20.9 43.4 1.19 26.4 34.2 14.9-36.3 45.1 4 30.2 45.9 33.9-47.7 42.6 0.562 25.1 81.6c37.5-118 139-83 145-76.7 10.8 12.1 14.4 46.4 14.4 46.4l8.31-50.9z" fill="#fed053"/><path d="m1096.4 227.39 42.3-69.7-10.9-34.9-30.1-2.21-18.8-115-86.2 2.21-93.8 149z" fill="#e43f3f"/></g><path d="m137.45 274.39-2.43-2.14-3.02-6.64 11.6-65.1c-22.3-0.169-44.3-1.84-66.4-4.91l-14-5.06c-21.6-15.5-42.3-32-63.2-48.3 13.5-16 24.1-28.2 31-35.7l6.17-1.89 22.2 13 7.75 1.98 2.46-0.877-8.75-8.68-17.6-16.4c-14.9-12.4-15-26.7-10.8-44.1 6.7-23.9 36.9-56.9 90-45.4 7.91 1.71 18.6 5.41 32.4 10.2 3.4 3.58 7.1 6.83 10.8 10.1 1.14-5.82 2.27-11.6 3.4-17.5l49.4-0.535 24.5 28.7 11.1-28.6 49.1-0.0193 3.54 3.75 27.2 42.5 28.1-46.2 49.7-0.0192 22.9 44.5 1.88 28.2 1.5 0.25 2.06-2.75c15.3-69.5 86.9-79.5 110-76.2 7.99 1.15 19 4.77 33.3 9.49l9.66 38.2 1.77 3.25 2.07-41.5 5.52-4.49 47.9-0.01 4.65 4.36 6.31-4.66 168-0.981 30.5 34.2 28.1-35.1 56.4 0.638 5.41 3.55v5.46l-10 42.4 15.4 0.639 36.8-52.2 81.1-2.88 9.75 0.711 5.26 6.73 17.7 111 25.6-0.887 5.97 7.48 6.52 48.5-25.1 27.4 1.43 15.8-26.5 28.9-79.8 1.25c3.14 13.2 7.27 22.4-7.54 28.2zm203-34.3 5.08-34.3 0.484-2.25h-28.7l-6.15 36.9c-1.3 7.82-24.8 11.6-24.2-2.27l3.95-32.4 0.023-2.25h-27.8l-0.556 2.75-5.22 33.5c-1.04 26 68.3 33.9 83.1 0.298zm77 18.8c23.3-5.37 27.5-23.7 6.45-30.6-10.6-3.49-32.7-7.24-32.7-7.24-12.2-2.71 12.2-12.8 16.6-2.66 0.3 0.687 0.32 2.22 0.32 2.22h28.9c1.09-14-14.4-17.9-30.4-18.3-58.6-1.4-63.5 25.9-23.5 35 6.63 1.68 19.9 4.89 19.9 4.89 9.68 2.38-11 16.5-19.5 2.72-0.594-0.96-0.957-3.25-0.957-3.25h-29.6s-0.165 2.51 4e-3 3.75c0.749 10.5 10.5 14.1 19.7 15.2 14.8 1.68 26.9 0.286 44.8-1.67zm344 2.55c7.36 0.0579 36.7-0.721 45.1-16.5 1.99-3.73 2.51-8.11 3.16-12.3 4.05-23.8-26.5-28.6-43.8-29.9-40.6-3.02-47.8 18.5-48.3 20.1-1.56 5.22-2 11-0.856 16.3 6.21 17.9 28.4 21.6 44.8 22.2zm2.08-13.9c-21.8 0.293-22.6-32-0.102-32 22 0 22.7 31.7 0.102 32zm99.4 13.4c12.6-1.15 32.3 0.457 39.1-12.9 3.04-6.36 1.69-44.5 1.69-44.5h-27.7l-0.619 39.2c-0.0999 6.32-23.6 7.15-23.9-0.649l-1.58-38.6-28.5 0.555 1.39 42c0.536 16.2 25.4 15.1 40.1 14.9zm-685-1.88 3.81-23.5s13.6-0.9 20 1.15c6.48 4.26 3.67 15.9 3.68 22.9h36.9s0.89-19.2-3.32-27.6c-1.52-2.08-7.52-4.03-10.9-5.01 0 0 15.5-5.77 18.2-15 3.46-13-8.14-18.1-13.3-18.8l-78.3-0.696-12.7 64.9-0.502 2.27zm16.8-36.7-9.26-0.71 2.29-15.1 7.6 6e-3c18.1-0.252 17.4 5.41 16 8.93-1.37 3.49-4.34 6.65-16.6 6.86-1.1e-4 -8e-5 9e-5 -4.1e-4 -5e-5 -4.2e-4zm284 37.2 2.37-21h28.3l-1.58 21h29.9l4.13-54.2-5e-3 -1.75h-28.9l-2.31 21h-28.1l1.41-21h-29.7l-4.72 56zm152 0 1.45-26h34.1l-1.16 26h36.5l1.32-67h-35l-1.28 25-33.5-1.29 1.09-23.7h-35.3l-4 67zm320 0-1.38-20c19.8-0.466 21.7-0.385 23.5 20h31.1c-1.59-5.86-2.27-12-3.93-17.8-2.4-7.42-11.2-7.78-11.3-8.9-0.1-1.65 6.75-2.89 9.05-6.89 17-29.6-56.4-24.6-78.1-22.5l1.28 56.2zm-1.09-31v-13c5.42-0.0726 23.3-1.87 20.7 8.25-1.51 4.01-5.38 5.15-20.7 4.75zm158-22.3-7.68-42.7 32.1-1.25-6-35.5-30.9-0.25-19.2-117-77.1 0.787-82 123 1.43 27.8 126 1.64 7.04 44.7zm-136-80.7 54.3-81 12.9 81zm-416 28.5 11.2-2.82 1.29-37.7-2.58 1.89c-27.7 19.4-77.5 6.08-77.6-29.5-0.0959-36.6 44.6-61 78.5-39.8l4.93 3.24 1.6-34.5s-14.2-5.5-21.6-6.85c-27.3-4.17-102 14.9-102 79.4-0.363 38.5 39.4 83.6 107 66.6zm-422-68.7c-7.28-15.8-30.7-19.2-46.2-24.7-21.4-12.5 0.791-36.6 30.9-20.6l5.89 3.16 8.89-11.7 8.33-12.5-8.28-3.91s-11.8-3.45-17.9-4.35c-40.5-5.98-67.1 15.4-74.7 38.5-10.5 37.6 17.5 38.6 45.3 47.3 17.8 5.56 0.735 28.8-8.59 30.3-18 2.92-21.5-1.23-43-13.7-7.38 8.42-11.6 13.4-21.5 26.9l5.25 3.87 10.8 5.29c72.5 25.2 116-33.3 105-64zm506 70.1 3.08-144h-38.1l-4 144zm99 0v-117h36.3l-1.29-27h-109l-1.29 27h36v117zm147 0-2.63-70.7 54.3-72.1-45.8-1.2-30.2 40.2-35.7-40.3-43.6 0.457 61.7 72.6 2.61 71zm-700-4.48 24-138h-33.8l-26.2 137zm227 0.482-8.46-138h-37.2l-46.4 78.3-23.4-78.3h-37.4l-47.4 137h35l27.3-82 2.46-0.618 2.74-0.248 24.3 82.4 14.1 0.583 50.3-82.4 2.71-0.227 1.96 0.623 2.55 83z"/></svg>
